<svg xmlns="http://www.w3.org/2000/svg" viewBox="0 0 440 440">
  <style>
    .octocat { fill: #24292f; }
    @media (prefers-color-scheme: dark) {
      .octocat { fill: #c9d1d9; }
    }
  </style>
  <path class="octocat" d="M220,18 C108.5,18 18,108.5 18,220 c0,89.3 57.9,165 138.2,191.7 10.1,1.9 13.8,-4.4 13.8,-9.7 c0,-4.8,-0.2,-20.6,-0.3,-37.4 c-56.2,12.2,-68.1,-23.8,-68.1,-23.8 c-9.2,-23.4,-22.5,-29.6,-22.5,-29.6 c-18.4,-12.5,1.4,-12.3,1.4,-12.3 c20.3,1.4,31,20.9,31,20.9 c18,30.9,47.3,22,58.8,16.8 c1.8,-13.1,7.1,-22,12.8,-27 c-44.9,-5.1,-92.1,-22.5,-92.1,-100 c0,-22.1,7.9,-40.2,20.9,-54.3 c-2.1,-5.1,-9.1,-25.7,2,-53.5 c0,0,17,-5.5,55.7,20.7 c16.2,-4.5,33.5,-6.7,50.7,-6.8 c17.2,0.1,34.5,2.3,50.7,6.8 c38.7,-26.2,55.7,-20.7,55.7,-20.7 c11.1,27.8,4.1,48.4,2,53.5 c13,14.1,20.8,32.2,20.8,54.3 c0,77.7,-47.3,94.8,-92.3,99.8 c7.3,6.3,13.7,18.6,13.7,37.5 c0,27.1,-0.2,48.9,-0.2,55.5 c0,5.4,3.6,11.7,13.9,9.7 C364.1,385,422,309.3,422,220 C422,108.5,331.5,18,220,18z"/>
  <!-- >_ terminal prompt -->
  <g fill="none" stroke="#58a6ff" stroke-width="14" stroke-linecap="round" stroke-linejoin="round">
    <polyline points="352,144 398,219 352,311" transform="rotate(5, 375, 227)"/>
    <line x1="365" y1="322" x2="445" y2="322"/>
  </g>
</svg>
